<?xml version="1.0" ?>
<svg fill="currentColor" width="800" height="800" viewBox="0 0 400 400" xmlns="http://www.w3.org/2000/svg">
<g>
<polygon points="213.3,26.7 213.3,0 186.7,0 186.7,26.7 186.7,53.3 213.3,53.3"/>
<rect height="26.7" width="26.7" x="53.3" y="53.3"/>
<rect height="26.7" width="26.7" x="320" y="53.3"/>
<rect height="26.7" width="26.7" x="80" y="80"/>
<polygon points="213.3,106.7 240,106.7 240,80 213.3,80 186.7,80 160,80 160,106.7 186.7,106.7"/>
<rect height="26.7" width="26.7" x="293.3" y="80"/>
<rect height="26.7" width="26.7" x="133.3" y="106.7"/>
<rect height="26.7" width="26.7" x="240" y="106.7"/>
<rect height="26.7" width="26.7" x="106.7" y="133.3"/>
<rect height="26.7" width="26.7" x="266.7" y="133.3"/>
<polygon points="53.3,186.7 26.7,186.7 0,186.7 0,213.3 26.7,213.3 53.3,213.3"/>
<polygon points="106.7,186.7 106.7,160 80,160 80,186.7 80,213.3 80,240 106.7,240 106.7,213.3"/>
<polygon points="293.3,213.3 293.3,240 320,240 320,213.3 320,186.7 320,160 293.3,160 293.3,186.7"/>
<polygon points="373.3,186.7 346.7,186.7 346.7,213.3 373.3,213.3 400,213.3 400,186.7"/>
<rect height="26.7" width="26.7" x="106.7" y="240"/>
<rect height="26.7" width="26.7" x="266.7" y="240"/>
<rect height="26.7" width="26.7" x="133.3" y="266.7"/>
<rect height="26.7" width="26.7" x="240" y="266.7"/>
<rect height="26.7" width="26.7" x="80" y="293.3"/>
<polygon points="186.7,293.3 160,293.3 160,320 186.7,320 213.3,320 240,320 240,293.3 213.3,293.3"/>
<rect height="26.7" width="26.7" x="293.3" y="293.3"/>
<rect height="26.7" width="26.7" x="53.3" y="320"/>
<rect height="26.7" width="26.7" x="320" y="320"/>
<polygon points="186.7,373.3 186.7,400 213.3,400 213.3,373.3 213.3,346.7 186.7,346.7"/>
</g>
</svg>